{"title":"PM Stretch for Health.2004.DVDRIP.Eng.AVI","uid":6536085,"size":733648675,"categoryP":"video","categoryS":"other","magnet":"?xt=urn:btih:7d019be1c16ac45ddaae9aa26a003ab1b5779ff5&amp;dn=PM+Stretch+for+Health.2004.DVDRIP.Eng.AVI&amp;tr=udp%3A%2F%2Ftracker.openbittorrent.com%3A80&amp;tr=udp%3A%2F%2Fopen.demonii.com%3A1337&amp;tr=udp%3A%2F%2Ftracker.coppersurfer.tk%3A6969&amp;tr=udp%3A%2F%2Fexodus.desync.com%3A6969","seeders":1,"leechers":1,"uploader":"Maximis","files":-1,"time":1310516682,"description":"Please note: Designed by: Madeleine Lewis Features: The original DVD includes both AM/PM stretch, however I have broken the DVD up into two parts. This is the second part (PM Stretch). \n\nDescription: Guided by fitness instructor Madeleine Lewis. -Designed to help you feel more flexible and invigorated in the morning. -Guides these targeted stretching programs designed to help you feel more flexible. -Invigorated in the morning and to help you relax and realign your body at the end of your day.\n\nDVD Specks.\n\nGeneral\t\t\t\t : PM Strech\nComplete name                    : Videos\\AM Stretch\\AM Stretch.avi\nFormat                           : AVI\nFormat/Info                      : Audio Video Interleave\nFile size                        : 700 MiB\nDuration                         : 34mn 26s\nOverall bit rate                 : 2 840 Kbps\nWriting application              : VirtualDubMod 1.5.4.1 (build 2178/release)\nWriting library                  : VirtualDubMod build 2178/release\nLanugage                         : English\n\nVideo\nID                               : 0\nFormat                           : MPEG-4 Visual\nFormat profile                   : Advanced Simple@L5\nFormat settings, BVOP            : 1\nFormat settings, QPel            : No\nFormat settings, GMC             : No warppoints\nFormat settings, Matrix          : Custom\nCodec ID                         : XVID\nCodec ID/Hint                    : XviD\nDuration                         : 34mn 26s\nBit rate                         : 2 712 Kbps\nWidth                            : 720 pixels\nHeight                           : 544 pixels\nDisplay aspect ratio             : 4:3\nFrame rate                       : 29.970 fps\nColor space                      : YUV\nChroma subsampling               : 4:2:0\nBit depth                        : 8 bits\nScan type                        : Progressive\nCompression mode                 : Lossy\nBits/(Pixel*Frame)               : 0.231\nStream size                      : 668 MiB (95%)\nWriting library                  : XviD 1.2.1 (UTC 2008-12-04)\n\nAudio\nID                               : 1\nFormat                           : MPEG Audio\nFormat version                   : Version 1\nFormat profile                   : Layer 3\nMode                             : Joint stereo\nCodec ID                         : 55\nCodec ID/Hint                    : MP3\nDuration                         : 34mn 26s\nBit rate mode                    : Variable\nBit rate                         : 114 Kbps\nNominal bit rate                 : 128 Kbps\nChannel(s)                       : 2 channels\nSampling rate                    : 48.0 KHz\nCompression mode                 : Lossy\nStream size                      : 28.2 MiB (4%)\nAlignment                        : Aligned on interleaves\nInterleave, duration             : 24 ms (0.72 video frame)\nInterleave, preload duration     : 549 ms\nWriting library                  : LAME3.98r\nEncoding settings                : -m j -V 4 -q 2 -lowpass 17 --abr 128\n","torrent":{"xt":"urn:btih:7d019be1c16ac45ddaae9aa26a003ab1b5779ff5","amp;dn":"PM+Stretch+for+Health.2004.DVDRIP.Eng.AVI","amp;tr":["udp%3A%2F%2Ftracker.openbittorrent.com%3A80","udp%3A%2F%2Fopen.demonii.com%3A1337","udp%3A%2F%2Ftracker.coppersurfer.tk%3A6969","udp%3A%2F%2Fexodus.desync.com%3A6969"],"infoHash":"7d019be1c16ac45ddaae9aa26a003ab1b5779ff5","infoHashBuffer":{"type":"Buffer","data":[125,1,155,225,193,106,196,93,218,174,154,162,106,0,58,177,181,119,159,245]},"announce":[],"urlList":[]}}